<svg version="1.1" id="Layer_1" xmlns="http://www.w3.org/2000/svg" x="0px" y="0px"
	 viewBox="0 0 110 110" enable-background="new 0 0 100 100" xml:space="preserve">
<path fill="#FEFEFE" opacity="1.000000" stroke="none"
	d="
M995.971313,356.997528
	C995.998779,356.248047 996.026306,355.498596 996.017456,354.375549
	C998.195496,344.927216 999.582214,335.809509 1004.632385,327.398407
	C1014.797180,310.468750 1029.300171,300.094971 1048.091919,295.214844
	C1051.122437,294.427887 1054.284424,294.147491 1058.200928,293.469727
	C1071.011841,293.276947 1083.007324,293.236389 1095.002808,293.220978
	C1106.898560,293.205688 1106.898438,293.216766 1107.039429,281.396454
	C1107.192017,268.604309 1111.323608,264.373230 1124.000000,264.026917
	C1125.086670,264.380463 1126.173340,264.734009 1127.816406,265.382507
	C1130.933716,267.459564 1133.494751,269.241638 1136.104980,271.305176
	C1136.412842,271.864105 1136.671509,272.141541 1136.908203,272.567383
	C1136.886353,272.715820 1136.989624,272.997498 1136.989624,272.997498
	C1137.291260,278.278015 1137.784302,283.557159 1137.822510,288.839569
	C1137.845337,291.991760 1138.769897,293.299103 1142.091553,293.263824
	C1154.567139,293.131317 1167.045288,293.154633 1179.521729,293.244446
	C1182.988037,293.269379 1184.187500,291.735382 1184.238037,288.413757
	C1184.298096,284.453552 1184.737427,280.495850 1185.090942,276.544037
	C1185.790894,268.718262 1191.183472,263.900330 1198.913940,264.128296
	C1209.735229,264.447449 1216.062744,271.444244 1215.292847,282.239716
	C1214.509521,293.225250 1214.510254,293.140442 1225.292236,293.248352
	C1238.589111,293.381348 1251.884277,293.673462 1265.899536,294.144836
	C1268.075317,294.566162 1269.531616,294.739502 1270.988037,294.912811
	C1272.026611,295.018921 1273.065063,295.125031 1274.765625,295.503052
	C1279.305908,297.235992 1283.261108,298.522614 1287.048340,300.190460
	C1298.946655,305.430420 1307.847412,314.297852 1315.814697,324.663544
	C1324.328613,338.947205 1326.859009,354.115417 1326.191406,370.250641
	C1325.657837,383.147400 1326.250977,396.090759 1326.262451,409.273224
	C1326.275391,410.056763 1326.370117,410.580536 1326.425171,411.506409
	C1326.475952,412.715698 1326.566406,413.522858 1326.524170,414.546417
	C1326.401978,415.096558 1326.412598,415.430328 1326.319702,416.174133
	C1326.175293,442.243835 1326.111328,467.903564 1326.109863,493.563263
	C1326.109497,499.718658 1326.316650,505.874084 1326.324707,512.432739
	C1326.288452,514.213257 1326.355713,515.590515 1326.319214,517.342834
	C1326.283447,518.485779 1326.351685,519.253601 1326.317139,520.477783
	C1326.285278,527.630493 1326.356201,534.326904 1326.427002,541.023254
	C1326.016479,549.743408 1325.605957,558.463501 1325.043701,567.966187
	C1323.356323,573.484619 1322.394043,578.507324 1320.191162,582.909302
	C1307.060913,609.147278 1285.808594,622.787537 1256.298828,622.829834
	C1189.852783,622.925110 1123.406494,622.897217 1056.680420,622.789368
	C1055.593140,622.533203 1054.785645,622.407166 1053.658936,622.183228
	C1052.897583,622.105225 1052.455444,622.125183 1051.611328,622.070435
	C1045.157471,619.962219 1039.105713,617.928650 1032.836548,615.627930
	C1019.524536,607.730469 1008.591431,597.991394 1002.003174,583.632812
	C1000.772705,580.451904 999.560303,577.634460 998.331909,574.402100
	C997.513123,566.927856 996.240234,559.884094 996.008179,552.806091
	C995.562866,539.223206 995.708008,525.620850 995.716125,511.567902
	C995.743835,492.055634 995.663635,473.002075 995.680054,453.503723
	C995.715637,449.723694 995.654602,446.388458 995.702087,442.639130
	C995.745361,440.809662 995.680115,439.394287 995.709167,437.519714
	C995.732727,426.369812 995.661987,415.679016 995.690979,404.529816
	C995.709961,397.736389 995.629333,391.401367 995.548706,385.066376
	C995.678101,377.023438 995.807495,368.980530 996.006104,360.099426
	C996.040588,358.506653 996.005981,357.752106 995.971313,356.997528
M1026.954224,438.934723
	C1027.028442,459.288361 1027.102661,479.641998 1026.994507,500.918060
	C1027.046997,517.282227 1027.099365,533.646423 1026.988770,550.925781
	C1026.531738,569.588989 1034.462769,582.771423 1050.516602,589.630493
	C1057.010254,590.408325 1063.503906,591.186157 1070.863892,592.114319
	C1072.910156,592.064087 1074.956543,592.013794 1077.868652,592.106628
	C1079.911377,592.058594 1081.954224,592.010559 1084.660400,592.101257
	C1085.107422,592.054932 1085.554565,592.008606 1086.929565,592.106262
	C1098.954468,592.053589 1110.979492,592.000916 1123.931885,592.093079
	C1133.890015,592.112610 1143.848267,592.166504 1153.806274,592.144714
	C1176.539185,592.094971 1199.272095,592.008179 1222.931152,592.090210
	C1234.887939,592.104370 1246.848755,592.318481 1258.800049,592.070435
	C1268.616333,591.866699 1277.270386,588.512146 1284.604492,580.737793
	C1292.094727,573.001099 1295.997803,563.927856 1295.129150,552.132507
	C1295.072266,549.755676 1295.015381,547.378784 1295.134277,544.077881
	C1295.077148,524.719604 1295.019897,505.361359 1295.136475,485.078674
	C1295.081055,461.720398 1295.025635,438.362091 1295.138184,414.078094
	C1295.134888,395.685638 1295.201416,377.292603 1295.051758,358.901306
	C1295.029541,356.193237 1293.981689,353.493500 1293.225586,350.085999
	C1289.110718,338.127686 1281.487671,329.739136 1268.354614,325.977692
	C1265.168457,325.336243 1261.990112,324.190216 1258.794922,324.141235
	C1245.374390,323.935364 1231.947876,323.981720 1218.526733,324.168762
	C1217.069092,324.189087 1214.680176,325.439941 1214.345581,326.591522
	C1212.599365,332.600250 1208.535400,335.940155 1202.079102,337.925568
	C1200.085815,337.892761 1198.092529,337.859955 1195.660278,337.286865
	C1194.143677,336.692169 1192.627197,336.097473 1190.692871,335.023865
	C1188.702759,332.445099 1186.870972,329.719116 1184.662231,327.343658
	C1183.370117,325.954102 1181.494629,324.218353 1179.850708,324.185638
	C1166.857788,323.926971 1153.855835,323.946991 1140.861816,324.175323
	C1139.449951,324.200104 1137.367065,325.796295 1136.795410,327.164764
	C1133.918457,334.053345 1130.432861,336.953552 1124.000854,337.202759
	C1116.506104,337.493164 1110.325073,335.065399 1107.419189,327.813904
	C1106.142944,324.629211 1104.520508,323.960449 1101.531982,323.988037
	C1089.534790,324.098846 1077.535889,324.009491 1065.537842,324.052277
	C1048.906128,324.111603 1035.312012,333.475464 1029.114380,348.841766
	C1025.531738,357.724396 1027.221680,366.913483 1026.978149,376.935883
	C1027.044312,383.965210 1027.110474,390.994537 1027.033569,398.889587
	C1027.080811,400.930878 1027.128052,402.972137 1027.010986,405.937103
	C1027.048218,416.628662 1027.085571,427.320221 1026.954224,438.934723
z"/>
<path fill="#FDFCFD" opacity="1.000000" stroke="none"
	d="
M1227.120605,398.989929
	C1226.175415,401.768982 1225.230225,404.548035 1223.992676,407.929260
	C1223.104370,409.640656 1222.508301,410.749847 1221.912109,411.859009
	C1220.685059,413.033813 1219.458130,414.208588 1217.962280,415.970703
	C1216.012207,419.000580 1214.330933,421.443115 1212.649658,423.885620
	C1212.135986,424.406799 1211.622314,424.927979 1211.063721,425.725464
	C1203.619019,436.048584 1196.219238,446.095398 1188.688354,456.466431
	C1178.681519,469.974945 1168.782471,483.141876 1158.940308,496.351196
	C1154.264282,502.626862 1149.697021,508.983368 1144.916748,515.604858
	C1139.696167,520.848511 1134.639160,525.790466 1128.917969,530.940186
	C1124.832031,532.144470 1121.410156,533.140991 1117.988403,534.137573
	C1115.969238,534.047546 1113.949951,533.957581 1111.271973,533.550537
	C1108.245117,532.098022 1105.676636,531.249939 1103.549927,529.768066
	C1098.962402,526.571533 1094.601562,523.049500 1090.148071,519.660645
	C1085.383301,514.008423 1080.618652,508.356140 1075.641235,502.399567
	C1074.993286,501.239410 1074.557983,500.383575 1073.987549,499.262695
	C1072.400757,491.182098 1079.337891,478.933746 1086.958496,477.492279
	C1089.771851,476.960114 1093.862915,478.715546 1096.148560,480.780762
	C1101.048218,485.208099 1105.060791,490.601929 1109.605713,495.441071
	C1114.723755,500.890381 1117.049805,500.731140 1121.342285,494.696289
	C1124.783691,489.858002 1128.008667,484.865723 1131.742676,479.576904
	C1133.669189,477.210724 1135.182495,475.209412 1136.695801,473.208130
	C1143.131226,464.372772 1149.566528,455.537415 1156.187988,446.393066
	C1162.966187,437.428223 1169.634888,428.829193 1176.131104,420.101837
	C1183.819458,409.772919 1191.453369,399.400574 1198.930542,388.918457
	C1204.093628,381.680450 1215.618164,381.013000 1221.760620,387.257324
	C1223.105103,388.534088 1224.019897,389.354065 1224.934814,390.174072
	C1225.339844,391.990631 1225.744873,393.807190 1226.458740,396.249573
	C1226.885376,397.580200 1227.003052,398.285065 1227.120605,398.989929
z"/>
<path fill="#FEFEFE" opacity="1.000000" stroke="none"
	d="
M1137.895508,435.532959
	C1137.635376,437.923676 1137.104248,439.840149 1137.002075,441.779236
	C1136.550537,450.352631 1130.972168,456.001892 1122.833984,455.971619
	C1113.701172,455.937622 1106.562378,449.800873 1106.421265,441.345459
	C1106.252441,431.215668 1106.514526,421.078705 1106.538940,410.482086
	C1106.695557,405.706177 1106.899780,401.392822 1107.111816,397.079865
	C1107.579712,387.565887 1112.631592,382.835632 1122.039429,383.097443
	C1131.376709,383.357239 1137.874268,389.443268 1137.894165,398.101715
	C1137.922363,410.424072 1137.850830,422.746643 1137.895508,435.532959
z"/>
<path fill="#FBFAFB" opacity="1.000000" stroke="none"
	d="
M1248.966064,515.689575
	C1247.532349,520.126526 1245.953247,524.307861 1244.187744,528.778687
	C1238.576782,533.271118 1232.780151,535.703552 1225.918701,532.737000
	C1225.191895,532.422729 1224.613525,531.765137 1223.695312,531.055054
	C1215.913086,523.583618 1208.385864,516.340515 1200.905029,509.049561
	C1199.485107,507.665771 1198.249878,506.092499 1196.683350,504.333557
	C1194.980591,502.257233 1193.433105,500.519196 1192.083618,498.639038
	C1187.368286,492.069366 1187.928833,484.387360 1193.423096,479.211884
	C1199.205811,473.764709 1208.860718,472.738708 1214.273926,477.884308
	C1224.737427,487.830536 1234.799561,498.205139 1244.843994,508.580444
	C1246.626953,510.422180 1247.517822,513.127563 1248.966064,515.689575
z"/>
</svg>