<svg width="110" height="110" version="1.1" id="Layer_1" xmlns="http://www.w3.org/2000/svg" xmlns:xlink="http://www.w3.org/1999/xlink" x="0px" y="0px"
	 viewBox="0 0 404 382" enable-background="new 0 0 404 382" xml:space="preserve">
<path fill="#FDFDFD" opacity="1.000000" stroke="none" 
	d="
M368.355682,155.030563 
	C368.292999,156.748398 368.230316,158.466248 368.275024,160.602539 
	C368.326447,162.737167 368.270508,164.453308 368.216187,167.044281 
	C368.285553,172.944443 368.353271,177.969818 368.421021,182.995178 
	C368.313782,195.262543 368.143494,207.529785 368.115631,219.797318 
	C368.082062,234.561234 368.169617,249.325409 368.311951,264.547791 
	C368.349976,271.701447 368.280731,278.396729 368.323059,285.549164 
	C368.267059,293.694550 368.099487,301.382812 367.996918,309.536194 
	C366.642395,315.255676 365.222870,320.510040 363.545410,326.373901 
	C362.375244,328.660614 361.463043,330.337860 360.550812,332.015076 
	C347.514221,355.739563 327.478882,368.609192 300.409637,368.758698 
	C234.253525,369.124146 168.094223,368.909790 101.470001,368.978210 
	C92.620476,366.689484 84.237160,364.351471 75.493256,361.984863 
	C62.255356,354.340851 51.634594,344.508942 44.479408,330.773895 
	C43.403671,329.004639 42.590042,327.477020 41.470825,325.796936 
	C41.165237,325.644470 41.171402,325.299561 41.086887,325.149170 
	C40.721992,322.915588 40.441612,320.832428 40.022411,318.377625 
	C39.698689,317.199890 39.513783,316.393768 39.224449,314.971375 
	C39.033588,313.918152 38.947155,313.481232 38.860725,313.044281 
	C38.536022,303.621613 38.108299,294.201050 37.916954,284.775665 
	C37.742107,276.163086 37.823086,267.545319 37.698376,258.469452 
	C37.664150,238.974777 37.722874,219.940475 37.774307,200.004807 
	C37.671669,195.393723 37.576317,191.684021 37.480965,187.974319 
	C37.591187,185.898926 37.701412,183.823547 37.809517,180.960281 
	C37.752079,178.784256 37.696762,177.396103 37.641449,176.007950 
	C37.695045,175.553055 37.748642,175.098145 37.810349,173.900650 
	C37.758244,171.782013 37.698025,170.405975 37.637806,169.029938 
	C37.704922,165.982483 37.772038,162.935013 37.738152,159.440887 
	C37.694252,156.286240 37.751354,153.578278 37.801178,149.970917 
	C37.710632,143.070709 37.627369,137.069870 37.662483,130.608841 
	C37.798691,122.094696 37.816513,114.040749 37.925808,105.550476 
	C38.460304,100.776901 38.903332,96.439651 39.346359,92.102394 
	C39.647881,91.346275 39.949402,90.590164 40.510658,89.254395 
	C40.880184,87.778702 40.989971,86.882668 41.099758,85.986626 
	C45.512871,75.032410 51.083508,64.819672 60.062069,56.385975 
	C60.246098,56.099846 60.634983,56.074409 61.070908,55.960117 
	C61.700405,55.570164 61.893982,55.294502 62.087555,55.018837 
	C62.087555,55.018837 62.022964,55.038948 62.352695,54.927578 
	C70.510033,47.683346 80.098724,44.033607 90.000877,41.003845 
	C108.359932,40.411472 126.717560,39.765545 145.079437,39.279556 
	C148.131302,39.198784 149.045395,38.017498 149.107269,35.098614 
	C149.211914,30.161776 148.910461,25.000402 150.242050,20.352367 
	C152.693787,11.794327 159.335144,8.714291 168.549423,11.095335 
	C178.082550,15.245757 179.971588,18.267208 179.941101,28.422056 
	C179.903015,41.102455 178.406509,39.083164 190.689270,39.215164 
	C200.819122,39.324032 210.953903,39.097919 221.080658,39.305298 
	C224.988129,39.385319 226.434235,38.078205 226.287170,34.141891 
	C226.158585,30.700087 226.577637,27.209419 227.042603,23.779356 
	C228.267471,14.743446 233.002716,10.535029 242.588867,10.041925 
	C244.380508,10.536687 245.736481,11.153374 247.145096,11.606373 
	C254.154922,13.860707 257.915680,19.289648 257.547272,26.702904 
	C256.924255,39.237759 256.924255,39.237061 269.371063,39.238579 
	C278.174011,39.239655 286.985962,38.999168 295.777008,39.324036 
	C302.548645,39.574276 309.293976,40.536251 316.489075,41.204979 
	C325.350708,45.420719 333.774323,49.613239 342.682739,54.222626 
	C347.307434,58.544365 351.447296,62.449234 355.587158,66.354111 
	C355.587158,66.354111 355.359711,66.456505 355.344299,66.583221 
	C358.792023,74.165771 363.552338,81.317719 365.388245,89.154755 
	C367.655579,98.833626 367.492126,109.081924 368.395630,119.965248 
	C368.393402,132.241074 368.374542,143.635818 368.355682,155.030563 
M156.731369,338.089844 
	C157.486710,338.041351 158.242065,337.992889 159.845108,338.104462 
	C161.564087,338.050629 163.283051,337.996796 165.928909,338.094696 
	C182.614487,338.040924 199.300064,337.987152 216.779526,338.092041 
	C217.853424,338.042847 218.927322,337.993652 220.919220,338.102509 
	C225.280685,338.050903 229.642136,337.999329 234.929565,338.102753 
	C244.954727,338.049255 254.979904,337.995758 265.930878,338.097046 
	C277.589020,338.109772 289.249634,338.274567 300.904572,338.087006 
	C310.184814,337.937683 318.326050,334.676514 325.518829,327.692291 
	C326.417786,326.482758 327.316711,325.273224 328.783875,323.731323 
	C329.885132,321.829346 330.986389,319.927368 332.477722,317.524597 
	C333.010956,316.681824 333.544189,315.839050 334.586029,314.408020 
	C335.054840,308.605408 335.523651,302.802765 336.216736,296.258667 
	C336.458923,294.506836 336.701111,292.754974 337.127808,290.080414 
	C337.067993,271.054474 337.008148,252.028549 337.122162,232.079132 
	C337.057953,226.050964 336.993744,220.022797 337.095032,213.070343 
	C337.047119,205.380905 336.999176,197.691483 337.122070,189.157104 
	C337.063995,187.438858 337.005890,185.720596 337.116211,183.138657 
	C337.029510,177.330658 336.942841,171.522644 337.041534,165.062897 
	C336.762543,162.299667 336.245300,159.535034 336.261597,156.773544 
	C336.284821,152.849152 336.700409,148.927063 337.108765,144.077637 
	C337.061493,137.051468 337.014191,130.025299 337.113281,122.126472 
	C336.737885,118.751198 336.362488,115.375923 336.124481,111.078606 
	C335.843658,106.357002 335.562836,101.635391 335.177673,96.163643 
	C330.989258,81.801132 318.162231,71.713509 301.870422,70.272850 
	C288.229706,70.203934 274.586884,70.005859 260.950806,70.225769 
	C259.200714,70.254005 257.238525,72.216095 255.806976,73.699600 
	C253.024918,76.582649 250.549850,79.761925 247.213318,82.869888 
	C237.907394,84.327744 230.598053,84.262161 226.240646,72.579346 
	C225.794067,71.382011 223.474594,70.194771 222.007690,70.174095 
	C208.886490,69.989189 195.760361,69.987762 182.639694,70.190933 
	C181.328384,70.211235 179.816391,71.746605 178.790390,72.921799 
	C176.034988,76.077858 173.492661,79.419952 170.223221,82.804283 
	C169.808502,82.934639 169.393768,83.064995 168.110611,83.184242 
	C166.087250,83.250549 164.063904,83.316849 161.328476,83.111015 
	C160.572174,83.038338 159.815857,82.965652 158.534164,82.474129 
	C156.724548,81.538765 154.914917,80.603409 152.779221,79.093796 
	C151.535263,77.139221 150.514725,74.981079 148.977402,73.293808 
	C147.723831,71.917976 145.869370,70.214752 144.252090,70.183777 
	C131.428955,69.938171 118.574654,69.567368 105.777275,70.197220 
	C91.599838,70.895004 80.300583,77.127502 73.080437,90.810799 
	C71.720779,95.004044 69.353500,99.158707 69.191154,103.397804 
	C68.711639,115.918076 69.104111,128.471741 69.017815,141.806549 
	C69.075676,142.874405 69.133537,143.942245 69.111763,145.552277 
	C69.146088,145.731659 69.180420,145.911041 69.041420,146.924103 
	C69.082092,148.620712 69.122757,150.317307 69.005585,152.938156 
	C69.043953,163.628326 69.082314,174.318481 68.956268,185.932327 
	C69.025200,192.622940 69.094139,199.313553 68.989380,206.927353 
	C69.047913,216.616821 69.106445,226.306274 68.990852,236.890518 
	C69.056358,239.925461 69.121872,242.960419 69.004433,246.917740 
	C69.056526,260.946320 69.108612,274.974884 68.991226,289.866638 
	C69.047890,291.912140 69.104553,293.957672 68.990570,296.856476 
	C69.130096,299.877838 69.269623,302.899200 69.373932,306.776428 
	C72.354042,322.431702 81.518272,333.194855 96.898773,336.498596 
	C106.908501,338.648682 117.611214,337.572571 128.894104,338.089355 
	C131.597794,338.039185 134.301468,337.988983 137.931213,338.086304 
	C143.949860,338.035461 149.968506,337.984650 156.731369,338.089844 
z"/>
<path fill="#FDFDFD" opacity="1.000000" stroke="none" 
	d="
M177.549164,135.220459 
	C178.523972,142.169861 179.276886,148.933090 179.831848,155.712509 
	C180.058350,158.479645 179.855942,161.281906 179.852875,164.980072 
	C179.902649,168.594467 179.948212,171.296997 179.927307,174.440109 
	C179.897278,177.254639 179.933701,179.628586 179.766846,182.356033 
	C178.673035,188.580261 179.113876,194.907745 173.522919,199.460205 
	C159.763702,205.884384 148.404297,198.805771 148.350037,184.177734 
	C148.314941,174.713547 148.256683,165.249466 148.208801,155.785339 
	C148.484207,153.851166 148.881561,151.924759 149.005234,149.980927 
	C149.173096,147.342712 148.906693,144.664352 149.218369,142.049927 
	C150.621277,130.281494 163.572556,124.875984 173.404388,131.906708 
	C174.746307,132.866318 175.969467,133.992004 177.549164,135.220459 
z"/>
<path fill="#FDFCFD" opacity="1.000000" stroke="none"
	d="
M240.231873,135.576447 
	C241.484726,134.082474 242.687332,132.932663 244.039932,131.508209 
	C251.381592,128.164352 258.243591,127.581169 264.255157,133.806396 
	C269.943665,139.696991 270.710449,147.472580 266.000153,154.173416 
	C261.725342,160.254745 257.245880,166.192230 252.745605,172.528168 
	C246.097122,181.551819 239.559677,190.240433 232.916016,199.227585 
	C229.862274,203.432083 226.914749,207.338043 223.840729,211.567551 
	C220.786880,215.858643 217.859543,219.826172 214.590027,224.315582 
	C210.751450,229.511429 207.255020,234.185410 203.468094,239.031174 
	C196.914993,247.778534 190.642792,256.347107 184.392441,264.931580 
	C177.619431,274.233917 168.673782,279.525848 157.013443,279.844910 
	C156.104584,279.727600 155.195740,279.610291 153.694183,279.307922 
	C148.245621,276.085663 143.373825,273.073486 138.541153,269.999786 
	C136.360565,268.612885 134.257874,267.103485 132.119858,265.649628 
	C131.447174,264.527557 130.774490,263.405487 129.822205,262.096161 
	C125.656693,257.499756 121.770813,253.090576 117.673508,248.377274 
	C116.908798,246.880341 116.355507,245.687546 115.590454,243.838989 
	C116.677757,239.153122 117.976814,235.123001 119.275871,231.092896 
	C120.979515,229.525101 122.697968,227.973068 124.383934,226.386490 
	C129.066971,221.979462 133.186386,221.705917 137.819992,226.286072 
	C142.406799,230.819946 146.454681,235.895187 150.808121,240.669922 
	C156.560059,246.978516 158.276199,246.813599 163.477936,239.823502 
	C165.542801,237.048767 167.765778,234.391693 170.327164,231.190811 
	C171.928894,228.951218 173.120239,227.201859 174.311569,225.452484 
	C178.778030,219.506027 183.244507,213.559586 188.156952,207.151123 
	C191.399124,202.462555 194.195328,198.236023 197.226990,193.770355 
	C202.092667,187.058701 206.722885,180.586182 211.353104,174.113663 
	C211.628235,174.075089 211.841995,173.939651 212.345917,173.333008 
	C213.612717,171.683960 214.527985,170.409271 215.443237,169.134583 
	C216.349762,168.018082 217.256271,166.901596 218.491699,165.290680 
	C221.997299,160.233597 225.173981,155.670944 228.350677,151.108292 
	C232.294342,146.045746 236.237991,140.983185 240.231873,135.576447 
z"/>
<path fill="#FCFBFC" opacity="1.000000" stroke="none" 
	d="
M288.756592,271.498657 
	C287.827332,272.746887 287.066833,273.652588 286.153748,274.817627 
	C281.279022,279.153992 275.870392,280.464783 269.400513,279.111206 
	C265.666138,276.196075 262.328583,273.267944 258.564697,269.900269 
	C250.868683,262.308624 243.599045,255.156540 236.228073,247.727173 
	C230.308624,240.842117 228.983932,233.805115 234.092392,226.153564 
	C239.388809,218.588623 254.126892,219.160019 259.438934,226.390564 
	C260.794830,228.236130 262.754761,229.637894 264.696045,231.393280 
	C272.080536,238.965729 279.323975,246.279984 286.290283,253.849258 
	C290.936249,258.897369 292.687164,264.682678 288.756592,271.498657 
z"/>
</svg>