<svg width="110" height="110" viewBox="0 0 81 32" fill="none" xmlns="http://www.w3.org/2000/svg">
<g clip-path="url(#clip0_1758_89)">
<path d="M15.795 31.59C7.08547 31.59 0 24.5043 0 15.795C0 7.08565 7.08547 0 15.795 0C24.5043 0 31.59 7.08565 31.59 15.795C31.59 17.6112 31.2838 19.3929 30.68 21.0902C30.3157 22.1142 29.1904 22.6484 28.1664 22.2846C27.1423 21.9203 26.6076 20.7949 26.9719 19.7711C27.4247 18.4983 27.6543 17.1605 27.6543 15.795C27.6543 9.25577 22.3342 3.93565 15.795 3.93565C9.25577 3.93565 3.93565 9.25577 3.93565 15.795C3.93565 22.3342 9.25577 27.6543 15.795 27.6543C17.1603 27.6543 18.4979 27.4249 19.7705 26.9721C20.7949 26.608 21.9198 27.1425 22.2841 28.1666C22.6484 29.1906 22.1135 30.3159 21.0896 30.6801C19.3923 31.2838 17.611 31.59 15.795 31.59ZM29.0578 26.8255C27.8251 26.8255 26.8259 27.8246 26.8259 29.0564C26.8259 30.29 27.8251 31.2899 29.0578 31.2899C30.2907 31.2899 31.2898 30.29 31.2898 29.0564C31.2898 27.8246 30.2906 26.8255 29.0578 26.8255ZM40.8599 31.0244H36.927V7.96023H38.8935H40.8599L40.8599 31.0244ZM38.8934 0C37.6607 0 36.6615 0.999111 36.6615 2.23085C36.6615 3.46451 37.6607 4.46441 38.8934 4.46441C40.1262 4.46441 41.1254 3.46452 41.1254 2.23085C41.1254 0.999111 40.1262 0 38.8934 0ZM50.1647 18.258C50.1647 16.2116 50.7935 11.4521 56.618 11.4521H57.1296V7.60759H56.618C53.7674 7.60759 51.6402 8.51321 50.1647 10.3664V7.96023H46.2317V31.0244H50.1647V18.258ZM81 7.96023V31.0244H77.0672V28.0793C75.0221 30.3065 72.162 31.5534 68.9615 31.5534C65.7952 31.5534 62.819 30.318 60.582 28.0748C58.3217 25.8086 57.0769 22.7606 57.0769 19.4925C57.0769 16.224 58.3217 13.1759 60.582 10.9096C62.819 8.66646 65.7952 7.43106 68.9615 7.43106C72.162 7.43106 75.0222 8.67789 77.0672 10.9052V7.96023H81ZM69.182 11.2758C64.5993 11.2758 61.0097 14.8849 61.0097 19.4925C61.0097 24.0997 64.5993 27.7087 69.182 27.7087C73.7647 27.7087 77.3545 24.0997 77.3545 19.4925C77.3545 14.8849 73.7647 11.2758 69.182 11.2758Z" fill="white"/>
</g>
<defs>
<clipPath id="clip0_1758_89">
<rect width="81" height="31.59" fill="white"/>
</clipPath>
</defs>
</svg>
