<svg width="110" height="110" viewBox="0 0 24 59" fill="none" xmlns="http://www.w3.org/2000/svg">
    <path d="M0.53782 11.3501L2.15128 5.94903C2.25293 5.5407 2.8085 4.89365 3.22692 4.86881H10.2186C10.5766 4.84007 10.9362 4.84007 11.2942 4.86881H15.5968C15.9119 4.90067 15.9932 5.12428 16.1346 5.40892L16.6724 6.48914C16.8959 6.82524 17.0766 7.18814 17.2102 7.56936L17.7481 9.72979C17.8083 10.0895 17.9229 10.2699 18.2859 10.2699C18.4188 10.2436 18.5409 10.1782 18.6367 10.0821C18.7324 9.98588 18.7975 9.86325 18.8237 9.72979V7.02925C18.8237 6.03112 18.274 5.17559 17.7481 4.3287C17.251 3.48904 16.5411 2.79674 15.6908 2.32234C14.8405 1.84795 13.8802 1.60841 12.9077 1.62815H11.832C11.5798 1.62815 11.4722 1.26736 11.2942 1.08804C10.3963 0.325766 9.24107 -0.0609458 8.0673 0.00782147H7.52948C5.78555 0.0176086 4.09009 0.585169 2.6891 1.62815C2.29236 1.94771 1.93166 2.30994 1.61346 2.70837V3.24848C0.785755 4.29197 0 5.15507 0 6.48914V11.3501C0 11.4679 0.420575 11.3501 0.53782 11.3501C0.504475 11.4743 0.665821 11.3501 0.53782 11.3501Z" fill="white"/>
    <path d="M9.68144 50.2377V38.8954C9.65856 38.6825 9.69709 38.4675 9.79244 38.276C9.88779 38.0845 10.0359 37.9245 10.2193 37.8152C10.7192 37.4608 11.0932 36.9552 11.2867 36.3722C11.4802 35.7892 11.4831 35.1593 11.2949 34.5745C11.1996 34.085 10.9269 33.6483 10.5295 33.349C10.1321 33.0496 9.63831 32.909 9.14362 32.9542C7.98408 32.9445 6.80357 33.4641 6.45452 34.5745C6.26722 35.1594 6.27052 35.7889 6.46397 36.3718C6.65741 36.9546 7.03091 37.4602 7.53016 37.8152C7.71605 37.9218 7.86634 38.0812 7.96206 38.2735C8.05778 38.4657 8.09464 38.6822 8.06798 38.8954C8.04862 42.5444 8.06798 46.0486 8.06798 49.6976V50.2377L2.68978 39.9756C2.08151 38.6945 1.65233 37.4868 1.07632 36.1949C0.951121 35.8458 0.951121 35.4638 1.07632 35.1147C2.98741 32.4181 4.10554 29.2366 4.30324 25.9328C4.32314 25.8437 4.26237 26.0144 4.30324 25.9328H13.4462C13.7436 27.3371 13.6419 28.3703 13.984 29.7136C14.5584 31.6582 15.4686 33.4864 16.6731 35.1147C16.7691 35.2783 16.8198 35.4648 16.8198 35.6548C16.8198 35.8447 16.7691 36.0312 16.6731 36.1949" fill="white"/>
    <path d="M14.522 24.3125V25.3927C14.3558 25.8 13.8826 26.5134 13.4464 26.4729H4.84126C4.57312 26.4258 4.32597 26.2968 4.13348 26.1035C3.941 25.9102 3.81254 25.662 3.76562 25.3927V24.3125H14.522Z" fill="white"/>
    <path d="M9.14258 26.4747L11.2939 25.3945V27.555L9.14258 26.4747Z" fill="#313131"/>
    <path d="M8.60636 26.4747L6.45508 27.555V25.3945L8.60636 26.4747Z" fill="#313131"/>
    <path d="M8.60563 51.3163C8.23345 51.2374 7.19008 52.4089 7.52999 53.4767C8.02317 55.0695 11.4071 55.5729 12.3704 55.6372C15.7167 55.8635 16.8235 54.4203 19.8998 55.097C21.8812 55.5243 22.4061 56.2351 22.5889 56.7174C22.8041 57.3002 22.3614 58.1924 22.5889 58.3377C22.8164 58.483 23.4946 57.8192 23.6646 57.2575C23.7369 56.964 23.7248 56.6559 23.6296 56.369C23.5344 56.0822 23.36 55.8284 23.1268 55.6372C22.5352 55.0565 21.7688 54.7427 20.4377 54.5569C18.4219 54.262 17.1855 54.5569 15.0595 54.5569C13.9608 54.5662 12.8689 54.3835 11.8325 54.0168C10.0233 53.5534 9.27091 53.1375 9.14345 52.9366C8.65242 52.1378 8.86539 51.3714 8.60563 51.3163Z" fill="white"/>
</svg>