<svg viewBox="0 0 32 32" fill="#ffff" xmlns="http://www.w3.org/2000/svg">
<g clip-path="url(#clip0_2474_415)">
<path d="M-0.0078125 14.7427C0.0442804 12.9358 0.68398 11.3561 1.63207 9.89659C2.70975 8.29604 4.01305 6.87641 5.49736 5.6863C7.57402 3.96256 9.7913 2.43379 12.1236 1.11768C13.2292 0.479893 14.4531 0.0998082 15.7117 0.00337932C16.0535 -0.0228394 16.2743 0.103883 16.3368 0.37044C16.3994 0.636998 16.3035 0.88171 16.0034 1.04995C13.4081 2.4959 10.9201 4.14431 8.56042 5.98125C7.02055 7.19824 5.54112 8.48952 4.32631 10.0692C3.83555 10.7064 3.39842 11.387 3.01982 12.1033C2.12591 13.7966 2.14883 15.4987 3.03858 17.2138C4.00043 19.0202 5.1312 20.7219 6.4142 22.2937C7.72068 23.928 9.08343 25.5164 10.7108 26.8055C11.5985 27.4993 12.5323 28.1257 13.5051 28.6801C15.2616 29.6961 17.0057 29.5039 18.6998 28.4464C20.3857 27.3688 21.9733 26.1306 23.4423 24.7473C25.005 23.3076 26.4883 21.7757 27.8848 20.159C28.452 19.5605 28.8309 18.7942 28.9704 17.9632C29.0642 17.2752 28.9544 16.5736 28.6558 15.9531C28.3127 15.2203 27.9258 14.5109 27.4972 13.8294C26.2282 11.8521 24.9217 9.89659 23.3798 8.14867C22.5463 7.19606 21.6774 6.2784 20.6168 5.59453C19.8104 5.07452 18.9498 4.70528 17.9788 4.78393C17.2096 4.86417 16.471 5.14181 15.8284 5.59234C13.1696 7.34026 10.7504 9.39843 8.74379 11.9417C8.12072 12.6939 7.60678 13.5383 7.21851 14.4477C7.15947 14.577 7.12778 14.7181 7.12563 14.8614C7.12347 15.0047 7.15089 15.1468 7.206 15.278C7.29371 15.5131 7.39389 15.7429 7.50606 15.9662C9.11845 18.8449 11.331 21.3038 13.9781 23.1589C14.076 23.2288 14.1864 23.2813 14.2781 23.349C14.9949 23.8646 15.7367 23.8712 16.5348 23.5522C17.3954 23.1979 18.2053 22.7207 18.9415 22.1342C20.2633 21.1253 21.4377 19.9197 22.4275 18.5553C22.5879 18.3215 22.7347 18.0778 22.8672 17.8256C23.0335 17.5361 23.1233 17.2054 23.1273 16.8675C23.1313 16.5296 23.0495 16.1966 22.8901 15.9029C22.7648 15.6373 22.6177 15.3836 22.4505 15.1447C21.4776 13.7787 20.3258 12.5636 19.029 11.5353C18.6577 11.2712 18.2668 11.0388 17.86 10.8405C17.6768 10.7445 17.4736 10.6985 17.2689 10.7065C17.0643 10.7145 16.8649 10.7764 16.689 10.8863C15.9221 11.3094 15.2058 11.8264 14.5553 12.4267C13.7783 13.1024 13.0859 13.8784 12.4945 14.7361C12.3495 14.9143 12.2655 15.1381 12.2557 15.372C12.2459 15.6059 12.3108 15.8366 12.4403 16.0274C13.1137 17.2172 14.0037 18.2565 15.0595 19.0863C15.1555 19.1742 15.2747 19.2292 15.4014 19.2441C15.528 19.2589 15.6559 19.2328 15.768 19.1693C16.496 18.8178 17.1552 18.3273 17.7121 17.7229C17.9726 17.4345 18.008 17.2859 17.8163 16.9298C17.6398 16.6356 17.4471 16.3526 17.2391 16.082C16.962 15.6888 16.6702 15.3086 16.4056 14.9066C16.3251 14.7927 16.2837 14.6536 16.2883 14.512C16.2928 14.3703 16.343 14.2345 16.4306 14.1265C16.5132 14.0141 16.6279 13.9323 16.758 13.893C16.888 13.8537 17.0267 13.859 17.1537 13.9081C17.3492 13.9512 17.5374 14.0248 17.7121 14.1265C18.754 14.782 19.4687 15.6953 19.7208 16.956C19.7819 17.2072 19.7919 17.4691 19.7503 17.7247C19.7086 17.9803 19.6162 18.2238 19.4791 18.4395C18.584 19.8165 17.2446 20.8081 15.7076 21.2318C15.2883 21.3308 14.8488 21.2589 14.4782 21.0308C13.8223 20.6664 13.2247 20.1968 12.707 19.639C11.8298 18.7921 11.0957 17.7956 10.5358 16.6916C10.3106 16.271 10.197 15.7948 10.2069 15.3125C10.2168 14.8303 10.3498 14.3596 10.592 13.9496C11.1474 12.9848 11.8291 12.1067 12.6174 11.3408C13.4897 10.4512 14.4615 9.67577 15.5117 9.03137C16.6598 8.33439 17.8038 8.32565 18.9957 8.90465C19.9 9.35809 20.735 9.95012 21.4732 10.6613C22.6091 11.6941 23.6209 12.868 24.4862 14.1571C25.0598 14.9812 25.3645 15.9774 25.3552 16.9975C25.3224 17.7592 25.1075 18.5001 24.73 19.1518C24.0633 20.3025 23.2454 21.3492 22.3004 22.2609C21.1134 23.5149 19.7457 24.5656 18.2476 25.3744C17.3955 25.8385 16.4613 26.1137 15.5034 26.1828C14.9348 26.1948 14.3717 26.0637 13.8614 25.8004C12.7161 25.2302 11.6572 24.4859 10.7191 23.5915C8.81047 21.8676 7.1164 19.9427 5.812 17.6683C5.38304 16.9804 5.0858 16.2116 4.93684 15.4047C4.85441 14.9039 4.90264 14.389 5.07645 13.9146C5.5557 12.6233 6.32667 11.5374 7.20392 10.5215C9.27513 8.10279 11.6943 6.11017 14.2323 4.26611C15.1045 3.58749 16.0916 3.08852 17.1412 2.79568C18.706 2.40895 20.1646 2.75635 21.5607 3.51014C22.7536 4.19321 23.8487 5.04939 24.8134 6.05336C27.1242 8.33876 29.0079 10.9847 30.6811 13.7988C31.3088 14.8454 31.6677 16.0444 31.723 17.2794C31.8016 18.7234 31.374 20.1478 30.5207 21.2843C29.9719 22.0087 29.3848 22.7002 28.762 23.3555C26.5407 25.8051 24.0731 27.9954 21.4023 29.8884C20.3397 30.6269 19.2499 31.3129 18.008 31.6887C16.2054 32.2486 14.2656 32.0495 12.6007 31.1338C10.7808 30.1777 9.11283 28.9322 7.65609 27.4413C5.39071 25.1464 3.39813 22.5729 1.72167 19.7767C1.06321 18.6646 0.471444 17.5131 0.196394 16.2175C0.0963755 15.7324 0.0630338 15.2343 -0.0078125 14.7427Z"/>
</g>
<defs>
<clipPath id="clip0_2474_415">
<rect width="32" height="32" fill="white"/>
</clipPath>
</defs>
</svg>
